HIERARCHY
ROOT Hips
{
	OFFSET	0.00	0.00	0.00
	CHANNELS 6 Xposition Yposition Zposition Zrotation Xrotation Yrotation
	JOINT LeftUpLeg
	{
		OFFSET	 0.126116	-0.065224	 0.014019
		CHANNELS 3 Zrotation Xrotation Yrotation
		JOINT LeftLeg
		{
			OFFSET	 0.000000	 0.569914	 0.000000
			CHANNELS 3 Zrotation Xrotation Yrotation
			JOINT LeftFoot
			{
				OFFSET	 0.000000	 0.544423	 0.000000
				CHANNELS 3 Zrotation Xrotation Yrotation
				JOINT LeftToeBase
				{
					OFFSET	 0.000000	 0.207117	 0.000000
					CHANNELS 3 Zrotation Xrotation Yrotation
					End Site
					{
						OFFSET	 0.000000	 0.207117	 0.000000
					}
				}
			}
		}
	}
	JOINT RightUpLeg
	{
		OFFSET	-0.124023	-0.065224	 0.008373
		CHANNELS 3 Zrotation Xrotation Yrotation
		JOINT RightLeg
		{
			OFFSET	 0.000000	 0.570047	 0.000000
			CHANNELS 3 Zrotation Xrotation Yrotation
			JOINT RightFoot
			{
				OFFSET	 0.000000	 0.544354	 0.000000
				CHANNELS 3 Zrotation Xrotation Yrotation
				JOINT RightToeBase
				{
					OFFSET	 0.000000	 0.207540	 0.000000
					CHANNELS 3 Zrotation Xrotation Yrotation
					End Site
					{
						OFFSET	 0.000000	 0.207540	 0.000000
					}
				}
			}
		}
	}
	JOINT Spine
	{
		OFFSET	 0.000184	 0.117403	 0.007763
		CHANNELS 3 Zrotation Xrotation Yrotation
		JOINT Spine1
		{
			OFFSET	 0.000000	 0.137269	 0.000000
			CHANNELS 3 Zrotation Xrotation Yrotation
			JOINT Spine2
			{
				OFFSET	 0.000000	 0.156879	 0.000000
				CHANNELS 3 Zrotation Xrotation Yrotation
				JOINT LeftShoulder
				{
					OFFSET	 0.080501	 0.160143	 0.002496
					CHANNELS 3 Zrotation Xrotation Yrotation
					JOINT LeftArm
					{
						OFFSET	 0.000000	 0.164363	 0.000000
						CHANNELS 3 Zrotation Xrotation Yrotation
						JOINT LeftForeArm
						{
							OFFSET	 0.000000	 0.364576	 0.000000
							CHANNELS 3 Zrotation Xrotation Yrotation
							JOINT LeftHand
							{
								OFFSET	 0.000000	 0.360812	 0.000000
								CHANNELS 3 Zrotation Xrotation Yrotation
								JOINT LeftHandIndex1
								{
									OFFSET	 0.000000	 0.086006	 0.000000
									CHANNELS 3 Zrotation Xrotation Yrotation
									JOINT LeftHandIndex2
									{
										OFFSET	 0.000000	 0.047237	 0.000000
										CHANNELS 3 Zrotation Xrotation Yrotation
										JOINT LeftHandIndex3
										{
											OFFSET	-0.004284	 0.038165	 0.000551
											CHANNELS 3 Zrotation Xrotation Yrotation
											End Site
											{
												OFFSET	-0.004284	 0.038165	 0.000551
											}
										}
									}
								}
							}
						}
					}
				}
				JOINT Neck
				{
					OFFSET	 0.000000	 0.176489	 0.000000
					CHANNELS 3 Zrotation Xrotation Yrotation
					JOINT Head
					{
						OFFSET	 0.000000	 0.077941	 0.001747
						CHANNELS 3 Zrotation Xrotation Yrotation
						End Site
						{
							OFFSET	 0.000000	 0.077941	 0.001747
						}
					}
				}
				JOINT RightShoulder
				{
					OFFSET	-0.080363	 0.159706	-0.000306
					CHANNELS 3 Zrotation Xrotation Yrotation
					JOINT RightArm
					{
						OFFSET	 0.000000	 0.164196	 0.000000
						CHANNELS 3 Zrotation Xrotation Yrotation
						JOINT RightForeArm
						{
							OFFSET	 0.000000	 0.365611	 0.000000
							CHANNELS 3 Zrotation Xrotation Yrotation
							JOINT RightHand
							{
								OFFSET	 0.000000	 0.360648	 0.000000
								CHANNELS 3 Zrotation Xrotation Yrotation
								JOINT RightHandIndex1
								{
									OFFSET	 0.000000	 0.069977	 0.000000
									CHANNELS 3 Zrotation Xrotation Yrotation
									JOINT RightHandIndex2
									{
										OFFSET	 0.000000	 0.052305	 0.000000
										CHANNELS 3 Zrotation Xrotation Yrotation
										JOINT RightHandIndex3
										{
											OFFSET	 0.009002	 0.042196	 0.000782
											CHANNELS 3 Zrotation Xrotation Yrotation
											End Site
											{
												OFFSET	 0.009002	 0.042196	 0.000782
											}
										}
									}
								}
							}
						}
					}
				}
			}
		}
	}
}
MOTION
Frames:    13
Frame Time: 0.03333334
-0.045278	 1.233450	-1.251216	-3.511822	 1.379555	-174.047600	 177.194500	 7.668044	-23.371140	 4.460340	-30.244110	 6.249981	 8.210456	 81.742690	-1.116959	 1.516776	 31.296160	-2.813774	 163.525500	 25.191010	 28.441620	-5.898382	-53.712830	 6.276042	 3.735662	 72.367640	-3.130231	-1.670489	 33.160720	 2.887165	-1.474075	 8.553315	-0.125886	-1.291251	 0.977768	 0.631972	 1.268483	-2.945131	-4.853354	-121.357400	 7.479452	 94.063290	 20.933370	 44.080580	-4.551921	 5.082197	-0.262627	-0.072195	 21.638800	-2.878359	 12.422340	 4.631396	 18.880220	-1.658817	-5.863888	 21.491650	 2.375965	 5.332421	 4.360939	-0.168658	-0.169394	-5.014339	-0.139996	-2.081851	-2.099783	-4.155309	 118.416100	-0.046254	-90.810880	 3.791319	 48.703450	-8.126845	-5.068941	-0.199179	 0.049735	-6.626705	 7.935956	-2.865066	-2.411916	 25.797760	 1.322293	 15.805600	 44.791370	-11.767900	-8.529766	 23.795010	-1.214641
-0.044993	 1.231597	-1.266574	-3.514404	 1.096226	-173.861500	 177.236000	 7.213664	-23.093370	 4.459439	-30.396350	 6.403928	 9.786030	 82.402370	-2.964951	 1.530561	 31.467260	-2.820286	 163.744500	 21.994460	 28.614840	-6.095628	-54.270210	 6.269919	 14.011820	 79.155110	-11.027970	-1.676497	 33.232480	 2.890175	-1.473038	 8.191474	-0.123898	-2.590642	-8.203215	 0.564840	 1.906771	 1.286108	-4.953736	-121.353000	 7.650693	 94.148320	 12.628490	 46.537590	 1.706586	 5.029820	-0.259932	-0.072339	 24.946810	-3.744237	 13.842350	 4.653529	 18.952770	-1.670632	-5.863698	 21.555390	 2.383003	 5.335158	 4.425055	-0.167495	-0.172526	-5.028902	-0.125591	-2.028291	-2.173804	-4.162477	 118.392400	-0.147269	-90.763490	 10.330800	 48.652090	-12.743700	-5.028268	-0.197574	 0.049854	-4.693415	 8.548871	-4.116631	-2.332085	 25.201080	 1.279883	 15.657220	 44.209010	-11.537910	-8.531778	 23.196070	-1.174832
-0.044529	 1.231285	-1.282020	-3.473655	 0.957246	-173.682500	 177.269300	 6.322553	-22.833400	 4.374588	-29.919230	 6.541499	 11.175180	 82.742260	-4.643672	 1.543322	 31.625130	-2.826347	 164.368900	 18.024020	 28.405140	-5.842154	-53.545780	 6.694928	 41.196270	 84.313830	-35.876210	-1.682049	 33.298680	 2.892962	-1.599579	 7.093350	-0.097005	-3.620563	-15.461770	 0.393954	 2.397859	 4.573491	-5.070745	-121.349200	 7.808710	 94.226780	 3.691900	 48.146920	 8.644399	 4.984674	-0.257616	-0.072648	 28.169280	-4.429155	 15.208370	 4.673971	 19.019720	-1.681564	-5.863527	 21.614200	 2.389498	 5.337684	 4.484213	-0.166424	-0.175412	-5.042338	-0.112301	-1.978869	-2.242068	-4.169069	 118.370500	-0.240471	-90.719800	 16.705910	 48.187850	-17.245510	-4.995110	-0.196287	 0.050053	-2.862268	 9.073053	-5.330470	-2.259183	 24.650360	 1.241737	 15.524430	 43.671180	-11.329500	-8.533228	 22.643310	-1.138270
-0.043958	 1.232273	-1.296445	-3.406208	 1.059069	-173.532900	 177.302000	 4.990294	-22.597540	 4.196955	-28.905230	 6.615169	 12.087170	 82.772030	-5.835330	 1.554734	 31.765860	-2.831795	 165.306700	 13.528050	 28.066480	-5.447031	-51.616100	 7.178992	 100.352200	 85.445420	-92.880930	-1.687005	 33.357710	 2.895455	-1.840117	 5.302955	-0.047394	-4.297417	-20.071740	 0.268240	 2.710322	 6.605357	-5.171093	-121.346100	 7.949588	 94.296780	-4.961568	 48.822740	 15.483150	 4.947574	-0.255677	-0.072777	 31.185570	-4.960014	 16.432850	 4.692214	 19.079390	-1.691335	-5.863383	 21.666640	 2.395290	 5.339934	 4.536953	-0.165471	-0.177983	-5.054317	-0.100454	-1.934803	-2.302932	-4.174894	 118.351100	-0.323585	-90.680900	 22.392630	 47.425680	-21.223440	-4.969158	-0.195276	 0.050068	-1.236621	 9.496163	-6.429909	-2.194785	 24.159270	 1.208511	 15.409280	 43.191330	-11.146660	-8.534194	 22.150430	-1.105803
-0.043322	 1.234192	-1.309968	-3.328520	 1.424481	-173.413200	 177.316600	 3.223908	-22.338830	 3.945168	-27.432770	 6.644968	 12.931370	 82.525960	-6.966192	 1.565288	 31.895660	-2.836856	 166.471700	 8.488815	 27.660450	-4.886663	-48.564880	 7.775050	 134.902200	 83.005710	-125.461200	-1.691581	 33.412150	 2.897761	-2.133257	 3.229498	 0.010340	-4.739953	-22.906390	 0.220501	 2.915297	 7.819714	-5.251051	-121.343300	 8.079525	 94.361360	-13.113500	 48.718950	 21.976630	 4.915946	-0.254062	-0.072882	 34.096120	-5.404889	 17.540940	 4.709055	 19.134430	-1.700368	-5.863255	 21.715000	 2.400635	 5.342009	 4.585594	-0.164594	-0.180351	-5.065366	-0.089527	-1.894162	-2.359117	-4.180190	 118.333300	-0.400259	-90.645020	 27.443920	 46.467060	-24.699840	-4.945786	-0.194348	 0.050222	 0.219837	 9.844548	-7.436862	-2.135875	 23.706250	 1.178509	 15.305700	 42.748480	-10.980430	-8.534816	 21.695800	-1.075962
-0.042805	 1.236180	-1.319988	-3.263788	 1.894488	-173.335700	 177.317400	 1.541661	-22.132050	 3.703149	-25.979050	 6.647183	 13.459590	 82.154720	-7.717883	 1.573178	 31.992460	-2.840653	 167.532500	 4.128180	 27.337510	-4.366347	-45.355900	 8.285795	 145.483900	 80.866990	-134.616700	-1.694998	 33.452740	 2.899485	-2.366063	 1.625267	 0.053949	-4.986727	-24.359450	 0.227274	 3.033661	 8.425883	-5.302671	-121.341300	 8.176415	 94.409520	-19.060540	 48.192080	 26.721280	 4.891285	-0.252792	-0.073018	 36.353570	-5.728175	 18.340890	 4.721624	 19.175470	-1.707118	-5.863162	 21.751060	 2.404621	 5.343555	 4.621868	-0.163942	-0.182116	-5.073606	-0.081378	-1.863850	-2.400977	-4.184153	 118.320000	-0.457433	-90.618290	 31.004240	 45.627350	-27.105040	-4.927198	-0.193650	 0.050262	 1.259835	 10.076610	-8.172032	-2.092240	 23.368360	 1.156530	 15.230070	 42.418050	-10.857930	-8.535113	 21.356720	-1.053770
-0.042309	 1.238637	-1.329836	-3.179872	 2.551756	-173.257900	 177.320500	-0.482577	-21.914310	 3.412375	-24.183180	 6.635610	 13.815420	 81.599950	-8.297133	 1.581123	 32.089750	-2.844489	 168.798800	-0.839815	 27.046990	-3.766727	-41.142790	 8.834098	 151.101300	 79.056720	-138.875300	-1.698435	 33.493550	 2.901222	-2.572397	 0.112902	 0.089371	-5.178016	-25.413530	 0.259847	 3.129409	 8.854906	-5.348935	-121.339300	 8.273807	 94.457920	-24.765790	 47.325940	 31.271180	 4.863583	-0.251345	-0.073235	 38.701800	-6.070225	 19.111740	 4.734264	 19.216710	-1.713912	-5.863071	 21.787310	 2.408629	 5.345109	 4.658325	-0.163287	-0.183889	-5.081888	-0.073189	-1.833382	-2.443049	-4.188109	 118.306600	-0.514914	-90.591420	 34.346630	 44.704270	-29.318070	-4.906285	-0.192810	 0.050385	 2.251287	 10.284310	-8.890222	-2.048636	 23.028740	 1.134778	 15.155410	 42.085820	-10.736050	-8.535268	 21.015930	-1.031520
-0.041921	 1.240687	-1.337089	-3.120143	 3.170895	-173.198300	 177.309200	-2.237936	-21.747650	 3.162064	-22.595170	 6.621472	 13.958530	 81.054220	-8.606600	 1.587192	 32.163930	-2.847427	 169.906300	-5.057254	 26.883240	-3.265046	-37.142040	 9.260196	 153.620700	 78.054240	-140.436900	-1.701057	 33.524650	 2.902548	-2.722759	-0.906513	 0.110731	-5.307485	-26.013630	 0.293409	 3.195712	 9.092571	-5.381098	-121.337900	 8.348081	 94.494850	-28.860020	 46.464650	 34.531340	 4.839617	-0.250157	-0.073197	 40.550480	-6.355028	 19.674730	 4.743906	 19.248160	-1.719100	-5.863005	 21.814940	 2.411685	 5.346294	 4.686121	-0.162788	-0.185240	-5.088202	-0.066945	-1.810151	-2.475146	-4.191103	 118.296500	-0.558742	-90.570950	 36.720380	 43.981680	-30.862860	-4.886626	-0.192051	 0.050358	 2.958973	 10.422400	-9.416518	-2.015556	 22.769770	 1.118417	 15.099380	 41.832420	-10.643930	-8.535293	 20.756070	-1.014588
-0.041555	 1.242648	-1.343496	-3.070744	 3.830553	-173.140700	 177.286500	-4.013706	-21.596210	 2.910864	-20.963310	 6.607232	 13.990630	 80.453730	-8.786133	 1.592817	 32.232570	-2.850157	 171.076300	-9.353263	 26.812830	-2.762857	-32.661610	 9.652709	 154.946600	 77.527770	-140.967000	-1.703486	 33.553440	 2.903778	-2.854190	-1.699206	 0.125240	-5.422822	-26.444330	 0.326407	 3.254905	 9.258480	-5.408852	-121.336700	 8.416777	 94.529020	-32.409320	 45.546280	 37.359930	 4.813680	-0.248824	-0.073405	 42.314190	-6.655224	 20.174700	 4.752835	 19.277260	-1.723907	-5.862943	 21.840520	 2.414513	 5.347390	 4.711844	-0.162327	-0.186489	-5.094045	-0.061167	-1.788657	-2.504889	-4.193832	 118.287100	-0.599299	-90.552010	 38.767150	 43.326130	-32.179040	-4.863394	-0.191132	 0.050424	 3.562817	 10.529390	-9.877771	-1.985070	 22.530120	 1.103448	 15.048210	 41.597860	-10.559300	-8.535239	 20.515600	-0.998946
-0.041277	 1.244073	-1.347942	-3.039336	 4.373085	-173.094200	 177.263800	-5.405574	-21.487360	 2.717216	-19.680110	 6.598452	 13.962010	 79.958620	-8.860207	 1.596983	 32.283350	-2.852182	 172.068000	-12.836520	 26.839860	-2.360940	-28.716030	 9.938212	 155.286800	 77.465810	-140.798500	-1.705283	 33.574740	 2.904688	-2.943950	-2.148803	 0.131526	-5.511328	-26.694730	 0.348241	 3.299374	 9.351824	-5.428170	-121.335800	 8.467612	 94.554300	-34.859100	 44.818310	 39.323840	 4.786944	-0.247397	-0.073517	 43.666470	-6.920648	 20.530620	 4.759443	 19.298790	-1.727467	-5.862900	 21.859430	 2.416606	 5.348201	 4.730874	-0.161986	-0.187413	-5.098368	-0.056893	-1.772752	-2.526839	-4.195880	 118.280200	-0.629320	-90.538020	 40.172390	 42.876420	-33.079550	-4.839160	-0.190188	 0.050529	 3.960087	 10.587920	-10.191300	-1.962595	 22.352820	 1.092480	 15.010770	 41.424310	-10.497070	-8.535158	 20.337700	-0.987389
-0.041082	 1.244952	-1.350662	-3.021379	 4.769571	-173.059300	 177.250900	-6.356893	-21.415750	 2.590194	-18.826950	 6.595808	 13.941860	 79.619620	-8.904571	 1.599780	 32.317420	-2.853544	 172.815700	-15.356940	 26.912940	-2.072629	-25.686470	 10.125200	 155.134900	 77.622000	-140.357100	-1.706489	 33.589030	 2.905300	-2.996116	-2.334215	 0.132862	-5.577371	-26.827000	 0.359204	 3.331396	 9.399114	-5.440447	-121.335200	 8.501736	 94.571270	-36.394300	 44.327770	 40.572540	 4.764232	-0.246268	-0.073569	 44.615050	-7.143446	 20.762260	 4.763877	 19.313230	-1.729857	-5.862871	 21.872130	 2.418011	 5.348745	 4.743639	-0.161757	-0.188033	-5.101269	-0.054025	-1.762080	-2.541571	-4.197250	 118.275600	-0.649445	-90.528640	 41.043070	 42.621220	-33.644340	-4.816267	-0.189263	 0.050602	 4.180792	 10.606390	-10.373080	-1.947552	 22.233860	 1.085171	 14.985850	 41.307840	-10.455490	-8.535081	 20.218350	-0.979643
-0.040936	 1.245407	-1.352162	-3.011276	 5.067968	-173.030200	 177.254900	-6.971553	-21.366480	 2.518651	-18.342400	 6.599573	 13.968730	 79.423360	-8.970886	 1.601673	 32.340450	-2.854466	 173.360700	-17.145000	 26.993530	-1.871841	-23.480130	 10.246640	 154.860000	 77.816610	-139.913100	-1.707305	 33.598690	 2.905714	-3.018748	-2.315369	 0.130201	-5.634276	-26.885340	 0.360268	 3.357300	 9.417940	-5.448096	-121.334800	 8.524781	 94.582700	-37.335730	 44.027410	 41.370210	 4.737088	-0.244835	-0.073763	 45.315410	-7.359150	 20.914080	 4.766875	 19.323000	-1.731473	-5.862851	 21.880710	 2.418960	 5.349112	 4.752270	-0.161603	-0.188452	-5.103229	-0.052087	-1.754864	-2.551499	-4.198200	 118.272400	-0.663048	-90.522290	 41.558330	 42.522300	-33.996500	-4.788973	-0.188202	 0.050660	 4.266714	 10.588360	-10.455280	-1.937401	 22.153460	 1.080253	 14.969090	 41.229120	-10.427470	-8.535017	 20.137670	-0.974411
-0.040875	 1.245436	-1.352388	-3.008664	 5.188176	-173.016300	 177.269500	-7.136966	-21.348580	 2.509703	-18.281670	 6.605469	 14.024090	 79.397870	-9.036594	 1.602295	 32.348030	-2.854770	 173.535300	-17.725790	 27.023020	-1.811091	-22.797290	 10.283090	 154.806900	 77.870190	-139.805200	-1.707574	 33.601860	 2.905850	-3.014977	-2.195068	 0.126785	-5.663833	-26.883740	 0.355450	 3.369713	 9.415311	-5.450153	-121.334600	 8.532364	 94.586480	-37.584920	 43.962260	 41.610140	 4.719468	-0.243987	-0.073828	 45.594650	-7.483913	 20.961950	 4.767861	 19.326210	-1.732005	-5.862844	 21.883530	 2.419272	 5.349234	 4.755108	-0.161552	-0.188589	-5.103874	-0.051449	-1.752498	-2.554865	-4.198434	 118.271400	-0.667529	-90.520200	 41.676050	 42.552320	-34.095330	-4.770357	-0.187470	 0.050715	 4.243520	 10.556430	-10.448770	-1.934065	 22.127010	 1.078640	 14.963600	 41.203220	-10.418270	-8.534995	 20.111130	-0.972690
